<?xml version="1.0" encoding="UTF-8" standalone="no"?>
<svg xmlns="http://www.w3.org/2000/svg" viewBox="0 0 400 400">
   <path fill="currentColor" stroke="none"
      d="M 166 343.9417 c -19.7085 -2.3922 -34.7251 -6.6409 -52.806 -14.9406 c -13.0002 -5.9675 -15.1307 -5.9952 -18.0845 -0.2351 c -3.0698 5.9862 -6.3816 8.4576 -12.0653 9.0038 c -6.1347 0.5895 -10.1176 -0.9311 -12.3536 -4.7165 c -2.9465 -4.9879 -1.5692 -13.3223 2.4103 -14.5853 c 3.2991 -1.0471 7.6445 -4.8706 7.6492 -7.9662 c 0.0047 -3.1671 -4.6448 -11.3032 -15.162 -3.77 c -10.4335 7.4732 -19.197 -2.0846 -18.8466 -8.3957 c 0.4795 -8.6341 4.2938 -14.9573 16.9492 -14.5581 c 11.7199 0.3697 11.6754 0.9603 10.9919 -4.8104 c -0.6886 -5.8143 -7.5654 -22.1253 -11.7825 -27.9469 c -3.7782 -5.2157 -6.7935 -5.909 -13.2838 -3.0543 c -2.814 1.2377 -6.1225 2.4778 -7.3523 2.7559 c -4.005 0.9055 -9.1181 -0.7303 -12.3335 -3.9457 c -4.3912 -4.0618 -3.582 -12.0458 0.1525 -16.4162 c 3.3152 -3.5993 9.5776 -6.3121 14.6319 -6.3384 c 2.9825 -0.0155 4.4829 -0.5336 5.1318 -1.772 c 2.6979 -5.1485 -4.946 -9.4888 -11.7237 -6.6569 c -6.3556 2.6556 -11.6703 3.4607 -15.0551 2.2807 c -5.9897 -2.088 -7.9364 -10.8052 -3.7878 -16.9614 c 3.6292 -5.3854 5.8688 -6.0929 17.0169 -5.3758 c 10.8724 0.6994 12.703 0.0503 12.703 -4.5042 c 0 -2.0605 -3.6007 -10.5422 -13.5047 -6.0304 c -8.9898 4.0953 -19.4476 1.8584 -22.9468 -4.9082 c -3.9372 -7.6136 -0.6846 -16.7489 7.4214 -20.8439 c 10.5581 -5.3338 33.429 -1.4803 41.5005 6.0434 c 2.4982 5.4908 5.5138 8.3047 11.8976 10.1213 c 2.4807 2.0737 4.1833 5.3914 6.8208 9.9054 c 4.0128 6.8679 10.587 21.2025 11.0612 26.2093 c -2.494 2.1311 -3.5487 2.8924 -7.5805 6.2015 c -9.6741 7.94 -12.0026 12.6336 -11.5165 23.2147 c 0.2733 5.949 0.8431 8.25 2.6812 10.8272 c 2.9154 4.0875 8.3529 6.918 14.9781 7.7969 c 4.881 0.9949 9.1962 -1.1244 13.1839 -3.7021 c 10.1978 26.5658 24.9395 45.6226 49.4506 58.6499 c 33.7136 16.2753 70.1095 7.7198 82.4067 2.8095 c 20.4257 -8.156 37.458 -23.8911 47.3657 -43.8268 c 2.6259 -5.2837 4.9432 -11.0159 7.1776 -16.625 c 12.3495 0.5372 17.6051 -2.2994 23.6946 -10.5077 c 12.8016 -18.6066 7.1784 -34.3077 -2.3414 -35.2546 c -2.5783 -0.2565 -4.7718 0.0631 -9.2247 0.947 c 0.5303 -3.2483 5.0053 -14.2676 8.8849 -21.7704 c 11.79 -22.8001 27.7056 -33.2302 50.7747 -33.2745 c 8.9948 -0.0173 12.1421 0.9765 16.5463 5.2245 c 7.6246 7.3542 6.287 18.5973 -2.7698 23.2807 c -4.1586 2.1505 -12.1166 1.8644 -17.229 -0.6193 c -4.053 -1.9691 -4.5509 -2.0033 -8.0245 -0.552 c -4.6151 1.9283 -5.6851 3.4543 -5.4264 7.2143 c 0.1174 1.7075 0.804 3.8478 2.4538 4.1871 c 3.3032 0.6794 6.946 -0.2949 10.6245 -0.781 c 3.6338 -0.4802 7.0956 -0.8056 10.5259 0.4861 c 4.0555 1.5272 8.1144 4.5771 8.1144 12.3714 c 0.2402 6.3488 -2.9175 10.734 -9.6655 10.5202 c -2.659 -0.0842 -7.19 -1.0874 -10.0689 -2.2293 c -4.5732 -1.8138 -5.7101 -1.9203 -9 -0.8425 c -3.4007 1.1141 -3.7656 1.5724 -3.7656 4.7293 c 0 1.1652 0.2246 3.3713 1.356 3.6503 c 1.7072 0.4211 4.2901 0.167 5.8315 0.3673 c 10.5124 1.3658 15.6458 7.0752 15.6458 15.6516 c 0 4.9165 -2.0846 7.8623 -7.0512 9.9645 c -4.649 1.9677 -8.0624 1.6775 -14.2738 -1.2137 c -7.8809 -3.6683 -11.1221 -2.8526 -15.4172 3.8799 c -3.9566 6.202 -9.0094 17.492 -10.7632 24.0491 c -1.9539 7.3055 -0.9034 8.2266 8.8902 7.7945 c 6.0049 -0.265 8.777 0.0571 11.1777 1.2986 c 8.4303 4.3595 9.8681 17.236 2.1145 21.8885 c -9.518 5.7113 -14.3653 -5.4287 -22.4709 -3.9081 c -7.0216 1.3173 -8.4129 9.28 -1.7483 12.5609 c 5.7319 2.8218 7.2087 5.7654 7.2087 10.2042 c 0 8.5989 -4.3817 13.1503 -13.5898 12.2656 c -5.6228 -0.5403 -9.2244 -3.5457 -12.2398 -9.3677 c -3.111 -6.0064 -5.1768 -6.0256 -17.9999 -0.1674 c -27.186 12.4198 -40.1304 15.3088 -78.6981 16.6084 c -14.8424 0.5002 -31.3473 -1.0881 -35.4723 -1.5888 z M 176 310.1268 c -24.1595 -5.29 -42.9724 -19.4136 -53.4498 -40.1268 c -1.9697 -3.6856 -3.4571 -7.3073 -4.7877 -11.5 c 6.5279 6.7768 14.6243 10.3321 24.1016 8.5326 l 4.9181 -1.1798 l 4.7539 5.0823 c 9.0984 9.7269 22.9954 14.0915 44.6718 14.03 c 22.1598 -0.0629 35.6727 -4.0855 45.015 -13.4003 c 4.0408 -4.029 9.2813 -12.611 11.5608 -20.4939 c 8.3101 -0.023 16.9447 -0.8213 25.1002 1.1319 l -2.5612 7.1486 c -8.978 25.0582 -27.4211 42.2405 -53.3226 49.6772 c -10.8878 3.126 -34.1973 3.6825 -46 1.0982 z M 144.9513 199 c 4.2282 0.1994 8.9859 -0.3101 13.5487 -0.5 l 0.3164 -2.75 c 0.3066 -2.6645 0.1667 -2.7502 -4.5 -2.7381 c -10.371 0.0268 -12.8356 4.3723 -19.2995 1.2091 c -7.0099 -3.4303 -7.5089 -13.5012 -0.979 -19.7573 c 2.9878 -2.8625 3.4342 -2.9644 14.5223 -3.3164 l 11.4398 -0.3631 v -2.8921 c 0 -2.8533 -0.077 -2.8922 -5.75 -2.8987 c -3.1625 -0.004 -9.6583 0.7422 -14.4351 1.6575 c -8.0802 1.5483 -8.8609 1.549 -11.2086 0.0107 c -3.7833 -2.4789 -5.0921 -8.0507 -3.7294 -15.8761 c 1.4162 -8.1323 1.4252 -15.387 0.0291 -23.4038 c -1.3771 -7.9076 -0.0331 -12.7475 4.139 -14.905 c 2.3298 -1.2048 5.3637 -1.3627 15.9167 -0.8286 c 11.7285 0.5936 13.0383 0.4937 13.0383 -0.9942 c 0 -1.2161 -0.905 -1.654 -3.4182 -1.654 c -1.88 0 -4.1467 -0.2795 -5.037 -0.6212 c -2.5945 -0.9956 -4.6861 -6.1424 -5.3905 -13.2643 c -0.7405 -7.4865 -0.0574 -7.1847 -11.2953 -4.9894 c -6.5313 1.2759 -12.2055 -0.0356 -13.9067 -3.2142 c -0.7553 -1.4114 -1.6806 -1.7662 -3.4485 -1.3225 c -2.9231 0.7336 -25.8341 -6.672 -30.7044 -9.9247 c -5.9253 -3.9573 -8.5541 -12.8739 -5.4466 -18.474 c 2.8428 -5.1229 10.0092 -7.5256 15.832 -5.3081 c 2.077 0.791 23.4306 19.0855 24.9225 21.3522 c 0.3381 0.5136 2.327 0.0013 4.4852 -1.1555 c 2.508 -1.3442 5.7226 -2.0784 9.1005 -2.0784 h 5.2227 l -0.2079 -6.5809 c -0.1925 -6.0919 0.0006 -6.7607 2.5979 -9 c 3.3624 -2.8989 10.0128 -3.2851 13.5774 -0.7884 c 2.9921 2.0958 5.1169 7.2187 5.1169 12.3372 v 4.0321 h 17.7202 l 0.5756 -5.5775 c 0.9145 -8.8608 4.3685 -12.4225 12.0468 -12.4225 c 6.4937 0 10.4889 6.1192 9.1539 14.0207 l -0.6723 3.9793 h 6.5648 c 5.9137 0 6.7287 0.2501 8.2167 2.5211 c 2.0579 3.1407 1.3811 9.6777 -1.3865 13.3923 c -1.7558 2.3566 -2.6454 2.6123 -10.0062 2.8759 l -8.079 0.2894 c -0.5566 4.652 -0.8968 9.3556 -2.0409 13.9121 c -0.9029 2.9836 -5.3038 5.7245 -10.0293 6.2463 c -9.3711 1.0347 0.1552 3.7314 13.2676 3.7557 l 3.8316 0.007 l -2.0816 -3.368 c -3.7014 -5.9888 -1.9751 -14.0208 2.8572 -14.6319 c 2.0968 -0.2652 3.942 -1.4182 7.194 -3.1515 c 8.2172 -4.3797 22.9835 -19.9694 28.7952 -30.4008 c 5.822 -10.4499 6.7507 -11.4478 10.6544 -11.4478 c 4.1245 0 7.4176 3.8424 7.4176 8.6548 c 0 3.4207 -6.0141 16.5262 -12.6088 27.476 c -1.8652 3.0969 -3.3912 6.1414 -3.3912 6.7655 c 0 0.7879 3.2187 1.0698 10.5314 0.9223 c 9.0957 -0.1834 10.4397 -0.4241 9.8586 -1.7655 c -2.0911 -4.8267 -1.5342 -7.054 4.5617 -18.2436 c 7.4691 -13.7103 9.5474 -15.8095 15.6518 -15.8095 c 3.573 0 4.9936 0.5413 6.9442 2.646 c 2.0776 2.2418 2.4522 3.6344 2.4522 9.1151 c 0 6.1929 -0.1601 6.617 -3.75 9.9333 c -2.0625 1.9053 -6.5625 5.5403 -10 8.0777 c -3.4375 2.5375 -6.25 4.8922 -6.25 5.2328 c 0 0.3406 7.3125 0.7182 16.25 0.8391 c 15.0818 0.2041 16.3758 0.3694 18 2.2987 c 2.1108 2.5073 2.2881 8.6585 0.3789 13.1393 c -3.2948 7.7326 -10.5352 10.308 -20.5875 7.3228 c -8.5571 -2.5412 -8.1432 -3.0513 -7.8241 9.6451 l 0.2828 11.25 l 10.7896 0.5 c 12.0239 0.5572 12.6696 0.931 12.6951 7.3489 c 0.0367 9.2373 -7.3959 15.5663 -16.6509 14.1785 c -2.5242 -0.3785 -5.2069 -0.9252 -5.9616 -1.2148 c -1.1071 -0.4248 -1.3722 1.4258 -1.3722 9.5804 v 10.107 h 10.845 c 9.2365 0 11.0905 0.2712 12.5 1.8287 c 2.3008 2.5423 2.1401 9.8635 -0.3045 13.8727 c -5.1573 8.4302 -15.7123 5.8876 -24.0405 5.1611 v 20.8818 c 13.3056 2.0825 18.8587 2.8301 27.9999 0.3708 c 6.7002 -1.8026 7.7398 -1.8605 9.75 -0.5434 c 7.6699 5.0255 -5.0716 30.4282 -15.2622 30.4282 c -0.8864 0 -4.0697 -1.1628 -7.074 -2.5841 c -6.7096 -3.1742 -22.1639 -4.8868 -36.9138 -4.0907 c -11.9406 0.6444 -13.3439 1.0961 -14.0899 4.5351 c -2.0021 9.2292 -4.3826 12.1397 -9.9287 12.1397 c -3.194 0 -4.8326 -0.6239 -6.7964 -2.5878 c -4.8904 -4.8904 -5.0036 -6.4085 -3.6747 -49.2598 c 1.1207 -36.1359 0.8244 -74.0516 -0.6639 -84.9458 c -0.6895 -5.0469 -2.5278 -5.112 -3.5174 -0.1245 c -0.373 1.8798 -1.207 5.4429 -1.8533 7.9179 c -0.7453 2.8543 -0.9821 8.6891 -0.6475 15.9548 c 0.8518 18.4975 -1.0109 20.8494 -15.1403 19.1164 c -4.7784 -0.5861 -10.6005 -1.0668 -12.938 -1.0684 c -4.047 -0.003 -4.25 0.1391 -4.25 2.9682 v 2.971 l 13.2134 0.279 c 13.184 0.2784 13.2167 0.285 14.7228 2.9714 c 3.2999 5.8859 -2.7393 17.2019 -9.9697 18.6807 c -1.8129 0.3708 -6.4845 0.3765 -10.3813 0.0126 c -3.8968 -0.3638 -7.4226 -0.4604 -7.8351 -0.2146 c -0.4125 0.2458 -0.75 1.7704 -0.75 3.3879 v 2.941 h 16 c 14.6667 0 16.1667 0.1667 18 2 c 4.0871 4.0871 1.4625 13.4495 -5 17.8356 c -5.8212 3.4904 -12.2463 1.9256 -20 1.7911 c 1.6563 1.8849 3.6768 3.9817 8.1706 8.2013 c 8.7134 8.1817 13.8294 15.1442 13.8294 18.8207 c 0 5.4298 -4.7324 10.1776 -9.9475 10.3513 c -3.882 0.1293 -14.327 -9.5758 -19.077 -13.7139 c -2.842 -2.4759 -10.1873 -10.3607 -10.3339 -10.1569 c -0.1466 0.2039 -2.3229 3.302 -4.8361 6.8847 c -11.2484 16.0345 -24.9995 22.8951 -34.3055 17.1153 c -4.1808 -2.5966 -7.1383 -6.0195 -8.9523 -10.3608 c -3.3261 -7.9604 -0.9228 -11.6391 8.9523 -13.703 c 8.85 -1.3688 15.1378 -7.0995 21 -13.3043 c -4.5609 0.507 -9.0302 1.3847 -13.3694 2.8934 c -3.9414 1.4046 -8.1797 0.6725 -11.2624 -2.2808 c -5.0155 -4.8051 -3.5417 -9.8767 -2.8613 -11.7496 c 3.133 -8.6242 6.0381 -11.3742 21.9444 -10.6242 z M 119.6752 222.0697 c -2.9804 5.3411 -18.1994 25.4498 -24.0238 29.0012 c -8.8208 5.3786 -15.6514 -4.0669 -15.6514 -10.5521 c 0 -6.5892 1.3475 -10.5158 8.756 -17.3043 c 7.0492 -6.4593 20.468 -15.7297 24.6821 -17.191 c 5.8335 -2.0229 7.3415 3.5322 7.6575 6.6879 c 0.2661 2.6568 0.0889 6.6536 -1.4203 9.3582 z m 133.4755 -2.6004 c 1.5792 -7.102 0.5281 -14.1843 0.3493 -20.9336 c -4.2083 0.2025 -8.3855 0.6534 -12.4483 1.8051 c -3.2875 1.073 -3.5762 1.4939 -3.8813 5.6592 c -0.3313 4.5226 0.2397 17.2145 1.36 17 c 5.7999 -1.1105 10.8719 -0.734 14.6204 -3.5308 z M 253 158 c -5.5162 -0.2989 -10.7891 1.53 -16 3.0775 v 16.9225 h 16 z M 159.5625 145.3489 c 1.25 -0.3289 0.8125 -9.146 0.8125 -13.3489 c -4.3362 0.1047 -9.0873 -0.32 -13.375 0.4693 c -1.0642 5.5308 -1.5609 9.6732 -2.226 14.5237 c 4.6429 -0.5631 10.2542 -0.4509 14.7885 -1.6441 z M 191 133 h -12 c -0.0101 3.9166 0.0214 7.8336 -0.0245 11.75 c 3.9029 1.0715 7.0245 1.662 10.7745 2.0929 c 1.0278 0.1181 0.9884 -5.6051 1.25 -13.8429 z M 253.0673 114.8128 c -5.4598 0.6842 -10.7845 1.9921 -16.0673 3.5037 c 0.7063 7.9334 -1.072 18.7349 0.7063 19.0564 c 4.8264 0.8726 9.9071 0.328 14.7937 0.127 z M 177 88 h -16 v 7 h 16 z M 103.0991 198.25 c -0.5379 -2.0625 -1.6646 -6.45 -2.5037 -9.75 c -0.8391 -3.3 -2.422 -8.6017 -3.5176 -11.7816 l -1.9919 -5.7816 l 5.707 -2.5677 c 11.2494 -5.0614 14.083 -6.4834 15.5573 -6.7469 c 0.8628 2.883 1.6426 5.4497 3.9207 7.5513 c 3.9836 3.4903 4.3216 3.9597 2.0564 7.8266 c -2.4481 4.1791 -1.5573 9.61 0.086 14.2131 c 0.6595 1.8473 0.945 2.4883 1.2286 3.2908 c 0.1011 0.2859 -1.1086 1.1756 -1.7829 1.9254 c -0.9501 1.0566 -1.8568 2.6901 -2.184 2.5706 c -3.994 -1.4581 -7.6389 -1.1697 -11.266 0.9211 c -1.9379 1.1434 -2.4735 1.4105 -3.9278 2.0789 c -0.482 -0.7679 -0.8444 -1.6875 -1.3823 -3.75 z M 288.75 170.2585 c -3.3964 -0.176 -5.6224 -0.2223 -7.109 -0.3477 c 0.2373 -1.3147 0.3222 -2.0588 0.4004 -2.8002 c 1.4688 -0.1106 1.9617 -0.1008 3.4907 -0.1106 c 11.1054 -0.071 20.3971 -9.908 20.4459 -21.882 c 0.0419 -10.2674 -5.5343 -15.118 -17.3792 -15.118 c -4.2676 0 -5.3627 0.039 -6.4735 0 c 0.0937 -1.9006 0.16 -3.131 0.2844 -4.9928 c 1.0347 0.2184 1.622 0.2928 3.4357 0.5991 c 10.5141 1.7754 23.8732 -7.0449 25.7177 -19.2214 l 0.8108 -4.7349 h 7.1006 c 14.7173 0 18.5253 3.0168 18.5253 12.9109 c 0 4.5243 -0.4626 5.9252 -2.832 8.5771 c -2.3758 2.6589 -3.7049 3.238 -8.25 3.5943 c -3.1111 0.2439 -7.9102 -0.2356 -11.2714 -1.126 c -5.2029 -1.3784 -6.1737 -1.3851 -8.7355 -0.0603 c -3.628 1.8761 -4.6803 5.6311 -2.5074 8.9474 c 1.5535 2.371 1.9409 2.452 8.909 1.863 c 5.7114 -0.4828 7.9726 -0.2601 10.4692 1.0309 c 5.3331 2.7578 8.2649 10.9109 6.1873 17.2061 c -1.5167 4.5957 -5.6067 6.4067 -14.4692 6.4067 c -8.1145 0 -12.3982 1.7444 -15.9869 6.3939 c -1.169 1.5146 -1.4494 2.1245 -2.6631 3.5481 c -3.816 -0.5608 -4.3876 -0.4911 -8.1001 -0.6835 z M 73.1169 167.3693 c -6.8629 -4.807 -6.5483 -21.2357 0.495 -25.8506 c 3.2025 -2.0983 41.4055 -6.8428 44.7772 -5.5609 c 2.8094 1.0681 3.611 2.8934 3.611 8.2228 c 0 5.3767 -3.4057 8.4745 -15.8502 14.4171 c -21.4044 10.2213 -28.3355 12.0618 -33.0329 8.7716 z M 88.756 127.7503 c -2.1146 -3.2272 -5.2137 -3.7524 -11.869 -2.0113 c -7.8312 2.0487 -15.3684 1.2341 -18.6143 -2.0117 c -3.0791 -3.0791 -4.2102 -11.6409 -2.065 -15.6309 c 2.8002 -5.2084 5.8775 -6.3978 16.8186 -6.5009 c 8.8138 -0.083 10.3205 -0.3486 11.5546 -2.0366 c 1.9197 -2.6259 1.8129 -3.256 -1.0355 -6.1043 c -2.8869 -2.8869 -7.2058 -3.1913 -13.5455 -0.9545 c -12.6345 4.4577 -22 -0.5722 -22 -11.8155 c 0 -8.0256 6.0135 -12.6567 16.3724 -12.6845 c 1.7466 -0.0047 2.9565 -0.0477 5.4367 0 c 1.4211 2.442 2.0303 3.5976 3.0455 5.3963 c 3.7151 6.5827 6.2262 8.421 17.1454 12.5515 c 7.9174 2.995 8.8201 3.6382 13.1704 9.3838 c 2.5687 3.3926 6.6187 9.3381 9 13.2122 c 4.0467 6.5835 4.3079 7.4404 3.9978 13.1118 l -0.3319 6.068 l -6.6681 0.5931 c -3.6675 0.3262 -9.3929 0.8933 -12.7232 1.2603 c -3.4131 0.376 -4.7721 0.5043 -6.3595 0.7489 c -0.4577 -1.1146 -0.7122 -1.6334 -1.3296 -2.5756 z M 324 92.5 c -4.1743 -1.6075 -9.5023 -2.3749 -14.0586 0.505 c -0.8095 -1.0478 -1.8083 -2.0292 -3.7816 -3.5673 c -2.0461 -1.595 -3.9276 -2.6216 -5.477 -3 l -2.8171 -0.6881 l 2.8171 -2.9765 c 4.2962 -4.5393 14.5715 -11.5986 19.3225 -13.2749 c 9.0175 -3.1816 20.6957 -0.9107 23.533 4.5762 c 3.0339 5.8669 1.186 14.9041 -3.7552 18.365 c -2.7276 1.9105 -10.8982 1.9419 -15.7832 0.0607 z" />
</svg>
